<svg width="25" height="25" viewBox="0 0 25 25" fill="none" xmlns="http://www.w3.org/2000/svg">
<path d="M12.1286 2.31836C10.1994 2.31836 8.31341 2.89046 6.70927 3.96231C5.10513 5.03416 3.85486 6.55762 3.11655 8.34004C2.37825 10.1225 2.18508 12.0838 2.56146 13.976C2.93784 15.8682 3.86688 17.6063 5.23109 18.9705C6.59529 20.3347 8.3334 21.2638 10.2256 21.6402C12.1178 22.0165 14.0791 21.8234 15.8616 21.0851C17.644 20.3468 19.1675 19.0965 20.2393 17.4923C21.3112 15.8882 21.8833 14.0023 21.8833 12.073C21.8803 9.4868 20.8516 7.00742 19.0229 5.17872C17.1942 3.35002 14.7148 2.32135 12.1286 2.31836ZM12.1286 20.3269C10.4962 20.3269 8.90036 19.8428 7.54302 18.9358C6.18567 18.0289 5.12775 16.7398 4.50303 15.2316C3.87831 13.7234 3.71486 12.0638 4.03333 10.4627C4.35181 8.86161 5.13792 7.39091 6.29225 6.23658C7.44658 5.08225 8.91728 4.29614 10.5184 3.97767C12.1195 3.65919 13.7791 3.82264 15.2873 4.44736C16.7955 5.07208 18.0846 6.13 18.9915 7.48735C19.8985 8.8447 20.3825 10.4405 20.3825 12.073C20.38 14.2613 19.5096 16.3592 17.9622 17.9065C16.4149 19.4539 14.3169 20.3243 12.1286 20.3269Z" fill="#00A4A6"/>
<path d="M15.6 9.54151L11.1282 14.0133L8.65727 11.5425C8.51639 11.4026 8.32582 11.3243 8.12731 11.3246C7.9288 11.325 7.73852 11.404 7.59816 11.5444C7.45779 11.6847 7.37877 11.875 7.37841 12.0735C7.37805 12.272 7.45637 12.4626 7.59623 12.6035L10.5976 15.6049C10.737 15.7443 10.9311 15.8247 11.1282 15.8247C11.3252 15.8247 11.5194 15.7443 11.6587 15.6049L16.6611 10.6025C16.8009 10.4617 16.8792 10.2711 16.8789 10.0726C16.8785 9.87408 16.7995 9.6838 16.6591 9.54343C16.5188 9.40306 16.3285 9.32405 16.13 9.32368C15.9315 9.32332 15.7409 9.40165 15.6 9.54151Z" fill="#00A4A6"/>
</svg>
