<svg width="21" height="19" viewBox="0 0 21 19" fill="none" xmlns="http://www.w3.org/2000/svg">
<path d="M17.903 0.895715C15.8235 -0.414965 13.0859 -0.105511 10.6443 1.44605C8.21026 -0.104654 5.47097 -0.414965 3.39402 0.895715C0.108558 2.97103 -0.290887 8.31662 2.50269 12.8341C4.56182 16.1661 7.78198 18.1171 10.6485 18.0811C13.515 18.1171 16.7352 16.1661 18.7943 12.8341C21.5845 8.31662 21.1884 2.97103 17.903 0.895715ZM4.01312 11.8809C3.43693 10.9577 3.00232 9.95165 2.72404 8.89695C2.4766 7.98171 2.38201 7.03115 2.44417 6.08443C2.56884 4.41544 3.24136 3.11504 4.33708 2.42241C5.4328 1.72978 6.88132 1.6895 8.42398 2.30755C8.65848 2.40287 8.88804 2.51015 9.11177 2.629C8.25433 3.41857 7.50889 4.32405 6.89659 5.3198C5.20043 8.06288 4.6831 11.1163 5.27506 13.5491C4.80349 13.0343 4.38097 12.4758 4.01312 11.8809ZM18.5738 8.89695C18.2951 9.95152 17.8606 10.9575 17.2847 11.8809C16.917 12.477 16.4945 13.0366 16.0228 13.5525C16.552 11.3709 16.1924 8.69893 14.8948 6.19244C14.8743 6.15099 14.8453 6.11438 14.8098 6.085C14.7744 6.05562 14.7332 6.03412 14.6889 6.02191C14.6447 6.0097 14.5984 6.00705 14.553 6.01413C14.5077 6.02121 14.4644 6.03786 14.4258 6.063L10.3805 8.61836C10.3436 8.64155 10.3117 8.67187 10.2864 8.70757C10.2612 8.74328 10.2431 8.78368 10.2334 8.82645C10.2236 8.86921 10.2223 8.91351 10.2295 8.95679C10.2367 9.00008 10.2523 9.0415 10.2753 9.07868L10.869 10.0379C10.8919 10.0752 10.9219 10.1075 10.9573 10.133C10.9926 10.1585 11.0326 10.1768 11.0749 10.1866C11.1172 10.1965 11.161 10.1978 11.2038 10.1906C11.2466 10.1833 11.2876 10.1675 11.3244 10.1442L13.9467 8.48892C14.0315 8.74608 14.1163 8.99896 14.1799 9.26041C14.4273 10.1757 14.5218 11.1262 14.4598 12.0729C14.3351 13.7428 13.6626 15.0432 12.5668 15.7358C12.0017 16.0851 11.3541 16.2745 10.6917 16.2844H10.6069C9.94455 16.2747 9.29691 16.0853 8.73183 15.7358C7.63526 15.0432 6.96274 13.7428 6.83807 12.0729C6.77642 11.1262 6.871 10.1757 7.11794 9.26041C7.6866 7.14314 8.86146 5.24288 10.495 3.79824C11.1995 3.1729 12.002 2.67029 12.8696 2.31098C14.408 1.69292 15.8591 1.73321 16.9557 2.42584C18.0522 3.11847 18.7239 4.41887 18.8486 6.08786C18.9116 7.03315 18.8188 7.98245 18.5738 8.89695Z" fill="#111111"/>
</svg>
