<svg width="24" height="24" viewBox="0 0 24 24" fill="none" xmlns="http://www.w3.org/2000/svg">
<rect x="0.5" y="0.5" width="23" height="23" rx="3.5" stroke="#D4DBE0"/>
<path d="M16.6627 7.24073L13.3659 5.89209C12.4898 5.53727 11.5101 5.53727 10.6341 5.89209L7.33756 7.24105C6.99715 7.37274 6.70383 7.60311 6.49522 7.90261C6.2866 8.2021 6.17219 8.55709 6.16666 8.92204V11.3283C6.20591 12.9693 6.78946 14.5507 7.82555 15.8238C8.86164 17.097 10.2915 17.9897 11.8903 18.3615C11.9625 18.378 12.0375 18.378 12.1097 18.3615C13.7084 17.9896 15.1383 17.0969 16.1744 15.8238C17.2104 14.5506 17.794 12.9693 17.8333 11.3283V8.92204C17.8277 8.55712 17.7132 8.20219 17.5047 7.90267C17.2962 7.60316 17.003 7.37268 16.6627 7.24073ZM16.8333 11.3283C16.7981 12.7239 16.3063 14.0695 15.4333 15.1589C14.5604 16.2483 13.3544 17.0216 12 17.3602C10.6456 17.0216 9.43954 16.2484 8.56656 15.159C7.69359 14.0695 7.20184 12.7239 7.16666 11.3283V8.92204C7.17288 8.75573 7.2285 8.59505 7.32643 8.46049C7.42435 8.32593 7.56013 8.22358 7.71646 8.16651L11.0124 6.81787C11.6456 6.56168 12.3537 6.56168 12.987 6.81787L16.2838 8.16618C16.4401 8.22338 16.5758 8.32581 16.6737 8.46042C16.7716 8.59503 16.8271 8.75573 16.8333 8.92204V11.3283Z" fill="#111111"/>
<path d="M13.6465 10.3537L11.5 12.5002L10.3535 11.3537C10.2597 11.2602 10.1326 11.2078 10.0002 11.2079C9.86777 11.2081 9.7408 11.2607 9.64716 11.3544C9.55353 11.448 9.50086 11.575 9.50074 11.7074C9.50061 11.8398 9.55302 11.9669 9.64648 12.0607L11.1465 13.5607C11.2393 13.6536 11.3687 13.7072 11.5 13.7072C11.6313 13.7072 11.7607 13.6536 11.8535 13.5607L14.3535 11.0607C14.447 10.9669 14.4994 10.8398 14.4992 10.7074C14.4991 10.575 14.4465 10.448 14.3528 10.3544C14.2592 10.2607 14.1322 10.2081 13.9998 10.2079C13.8674 10.2078 13.7403 10.2602 13.6465 10.3537Z" fill="#111111"/>
</svg>
