<svg width="24" height="24" viewBox="0 0 24 24" fill="none" xmlns="http://www.w3.org/2000/svg">
<rect x="0.5" y="0.5" width="23" height="23" rx="3.5" stroke="#D4DBE0"/>
<path d="M15.5466 12.002C15.5621 11.1605 15.2793 10.3408 14.7481 9.68799C14.217 9.0352 13.4719 8.59154 12.6449 8.43566C11.8179 8.27978 10.9624 8.42174 10.2301 8.83639C9.49774 9.25104 8.93587 9.91158 8.64406 10.7009C8.35224 11.4903 8.34934 12.3575 8.63585 13.1488C8.92236 13.9401 9.47979 14.6044 10.2093 15.0239C10.9389 15.4435 11.7934 15.5912 12.6214 15.4408C13.4494 15.2905 14.1975 14.8519 14.733 14.2026C14.9328 14.658 15.2832 15.0307 15.7254 15.2582C16.1676 15.4857 16.6746 15.5541 17.1612 15.4519C17.6479 15.3497 18.0845 15.0831 18.3978 14.697C18.7112 14.3109 18.8821 13.8287 18.8818 13.3314V11.9372C18.8818 7.33458 15.1701 5.24774 11.9942 5.24774C11.0952 5.22379 10.2003 5.3808 9.36321 5.70944C8.52615 6.03809 7.76369 6.53166 7.12117 7.16082C6.47864 7.78999 5.96916 8.5419 5.623 9.37188C5.27684 10.2019 5.10107 11.093 5.10613 11.9922C5.09507 13.1024 5.36571 14.1972 5.89276 15.1743C6.4198 16.1514 7.18603 16.9789 8.1198 17.5794C9.28026 18.3674 10.6488 18.7927 12.0514 18.8011C12.957 18.8025 13.853 18.6151 14.682 18.2507C14.8032 18.1984 14.9011 18.0972 14.9493 17.9744C14.9976 17.8516 14.9947 17.7108 14.9416 17.59C14.8884 17.4693 14.7865 17.3721 14.6633 17.3248C14.5401 17.2774 14.3994 17.2813 14.279 17.3354C13.3717 17.7193 12.3818 17.8668 11.4019 17.7642C10.4221 17.6616 9.48423 17.3121 8.67615 16.7484C7.88365 16.2422 7.23229 15.5434 6.78284 14.7174C6.33338 13.8913 6.10047 12.9649 6.10584 12.0245C6.10088 11.255 6.25063 10.4924 6.54621 9.78199C6.84178 9.07155 7.27714 8.42777 7.82643 7.88891C8.37571 7.35004 9.0277 6.92709 9.74367 6.64517C10.4596 6.36325 11.225 6.22812 11.9942 6.24782C12.763 6.22818 13.528 6.36321 14.2436 6.64491C14.9592 6.9266 15.611 7.34921 16.1602 7.88764C16.7093 8.42607 17.1447 9.06935 17.4405 9.7793C17.7362 10.4892 17.8863 11.2514 17.8819 12.0204V13.3315C17.8799 13.6397 17.7561 13.9347 17.5375 14.1521C17.3189 14.3694 17.0233 14.4916 16.715 14.4919C16.4068 14.4922 16.1109 14.3706 15.8919 14.1537C15.6729 13.9367 15.5486 13.642 15.5459 13.3338L15.5466 12.002ZM12 14.4981C11.5079 14.4886 11.0296 14.334 10.625 14.0537C10.2204 13.7733 9.90769 13.3798 9.726 12.9223C9.54432 12.4649 9.50178 11.964 9.60374 11.4825C9.7057 11.0009 9.94761 10.5603 10.2991 10.2157C10.6506 9.87119 11.096 9.63815 11.5795 9.54585C12.063 9.45354 12.5629 9.50609 13.0166 9.6969C13.4703 9.8877 13.8576 10.2083 14.1298 10.6183C14.4019 11.0284 14.5469 11.5098 14.5466 12.002C14.5391 12.6704 14.2667 13.3086 13.7894 13.7765C13.312 14.2445 12.6685 14.5039 12 14.4981Z" fill="#111111"/>
</svg>
