<svg width="24" height="24" viewBox="0 0 24 24" fill="none" xmlns="http://www.w3.org/2000/svg">
<rect x="0.5" y="0.5" width="23" height="23" rx="3.5" stroke="#D4DBE0"/>
<path d="M18.4987 15.295L17.903 7.55021C17.8721 7.1744 17.7015 6.82381 17.4247 6.56768C17.148 6.31155 16.7853 6.16849 16.4082 6.16675H7.59179C7.21463 6.1683 6.8518 6.31134 6.57506 6.56759C6.29832 6.82383 6.12783 7.17461 6.09732 7.55053L5.50161 15.295C5.50053 15.3083 5.5005 15.3184 5.49999 15.3334C5.4746 16.08 5.76441 16.6316 6.23308 17.1003C6.70175 17.569 7.33718 17.8326 7.99999 17.8334H16C16.6628 17.8326 17.2982 17.5689 17.7668 17.1003C18.2355 16.6316 18.5191 16.0802 18.5 15.3334C18.4996 15.3184 18.4987 15.295 18.4987 15.295ZM7.59179 7.16675H16.4082C16.5337 7.16735 16.6544 7.21499 16.7465 7.30027C16.8386 7.38555 16.8954 7.50227 16.9056 7.62736L17.3364 13.2283C16.9379 12.9715 16.4741 12.8345 16 12.8334H7.99999C7.5258 12.8345 7.06186 12.9715 6.66323 13.2284L7.09406 7.62736C7.1043 7.50221 7.16111 7.38546 7.25327 7.30018C7.34543 7.21489 7.46622 7.16728 7.59179 7.16675ZM16 16.8334H7.99999C7.6037 16.8328 7.22371 16.6756 6.94286 16.396C6.65471 16.1091 6.47422 15.6882 6.50552 15.2786C6.51947 14.8912 6.68291 14.5243 6.96155 14.2549C7.2402 13.9854 7.61238 13.8344 7.99999 13.8334H16C16.3852 13.8345 16.7552 13.9839 17.0333 14.2505C17.3113 14.5172 17.476 14.8806 17.4931 15.2655C17.5251 15.6814 17.3502 16.1043 17.0563 16.3966C16.7756 16.6758 16.3959 16.8328 16 16.8334Z" fill="#111111"/>
<path d="M16.0443 14.8334H11.3333C11.2007 14.8334 11.0735 14.8861 10.9798 14.9799C10.886 15.0736 10.8333 15.2008 10.8333 15.3334C10.8333 15.466 10.886 15.5932 10.9798 15.687C11.0735 15.7807 11.2007 15.8334 11.3333 15.8334H16.0443C16.1769 15.8334 16.304 15.7807 16.3978 15.687C16.4916 15.5932 16.5443 15.466 16.5443 15.3334C16.5443 15.2008 16.4916 15.0736 16.3978 14.9799C16.304 14.8861 16.1769 14.8334 16.0443 14.8334Z" fill="#111111"/>
<path d="M8.30665 15.0535C8.21102 14.9634 8.08464 14.9133 7.9533 14.9133C7.82196 14.9133 7.69558 14.9634 7.59995 15.0535C7.5093 15.1451 7.45415 15.2709 7.45314 15.3998C7.45119 15.5328 7.51177 15.6603 7.59995 15.7598C7.69515 15.849 7.82281 15.9051 7.95314 15.8998C8.08526 15.9027 8.21648 15.85 8.30993 15.7566C8.40337 15.6631 8.45604 15.5319 8.45314 15.3998C8.45023 15.2704 8.39965 15.1434 8.30665 15.0535Z" fill="#111111"/>
</svg>
