<svg width="21" height="21" viewBox="0 0 21 21" fill="none" xmlns="http://www.w3.org/2000/svg">
<path d="M14.926 7.52211H14.4318V5.77771C14.4303 4.77496 14.0309 3.81379 13.3213 3.10526C12.6118 2.39674 11.65 1.99878 10.6472 1.99878C9.64449 1.99878 8.68272 2.39674 7.97315 3.10526C7.26357 3.81379 6.86418 4.77496 6.8627 5.77771V7.52211H6.3693C5.87195 7.52265 5.39512 7.72046 5.04344 8.07214C4.69176 8.42382 4.49395 8.90065 4.49341 9.398V16.3752C4.49402 16.8725 4.69186 17.3493 5.04352 17.7009C5.39518 18.0526 5.87197 18.2504 6.3693 18.2511H14.926C15.4233 18.2504 15.9 18.0525 16.2517 17.7009C16.6033 17.3492 16.8012 16.8725 16.8019 16.3752V9.398C16.8013 8.90067 16.6034 8.42388 16.2518 8.07222C15.9001 7.72055 15.4233 7.52272 14.926 7.52211V7.52211ZM8.11329 5.77771C8.1145 5.10646 8.38201 4.46312 8.85709 3.9889C9.33216 3.51469 9.97599 3.24835 10.6472 3.24835C11.3185 3.24835 11.9623 3.51469 12.4374 3.9889C12.9125 4.46312 13.18 5.10646 13.1812 5.77771V7.52211H8.11329V5.77771ZM15.5513 16.3752C15.551 16.5409 15.485 16.6998 15.3678 16.817C15.2506 16.9342 15.0917 17.0001 14.926 17.0005H6.3693C6.20353 17.0002 6.04463 16.9343 5.92742 16.817C5.81021 16.6998 5.74425 16.5409 5.744 16.3752V9.398C5.74418 9.23221 5.81012 9.07327 5.92734 8.95604C6.04457 8.83882 6.20351 8.77288 6.3693 8.7727H14.926C15.0918 8.77295 15.2507 8.83891 15.3679 8.95612C15.4851 9.07333 15.551 9.23223 15.5513 9.398V16.3752Z" fill="white"/>
</svg>
