<svg width="158" height="24" viewBox="0 0 158 24" fill="none" xmlns="http://www.w3.org/2000/svg">
<path d="M23.2498 1.09729C20.4488 -0.652986 16.7604 -0.237185 13.477 1.83106C10.1927 -0.237185 6.50623 -0.652986 3.70521 1.09729C-0.719887 3.86212 -1.25798 10.9855 2.50477 17.0063C5.27938 21.4461 9.61642 24.0465 13.477 23.9986C17.3376 24.0465 21.6756 21.4461 24.4492 17.0063C28.212 10.9855 27.6749 3.8631 23.2498 1.09729ZM4.53876 15.7354C3.74728 14.4685 3.1632 13.131 2.80219 11.7594C2.4627 10.467 2.33551 9.20589 2.4265 8.01132C2.59478 5.78654 3.49975 4.05388 4.97609 3.13129C6.45243 2.2087 8.40718 2.15489 10.4803 2.97866C10.7924 3.10292 11.1016 3.24673 11.4068 3.40621C10.3022 4.40706 9.28672 5.61044 8.42381 6.99187C6.13739 10.6509 5.44179 14.716 6.23914 17.9631C5.61398 17.289 5.04457 16.5435 4.53974 15.7344L4.53876 15.7354ZM24.1518 11.7594C23.7908 13.131 23.2067 14.4685 22.4152 15.7354C21.9094 16.5445 21.341 17.289 20.7158 17.9631C21.4291 15.0555 20.9467 11.4943 19.1965 8.15416C19.0732 7.91935 18.7895 7.84108 18.5644 7.98197L13.115 11.3866C12.9066 11.5168 12.843 11.7917 12.9732 12.0001L13.7725 13.2788C13.9026 13.4872 14.1775 13.5508 14.3859 13.4206L17.9178 11.2135C18.0361 11.553 18.1418 11.8944 18.2328 12.2378C18.5723 13.5302 18.6995 14.7913 18.6085 15.9859C18.4402 18.2107 17.5352 19.9433 16.0589 20.8659C15.3212 21.3267 14.4651 21.5703 13.5338 21.5967C13.5132 21.5967 13.4927 21.5967 13.4731 21.5967C13.4555 21.5967 13.4379 21.5967 13.4212 21.5967C12.4898 21.5703 11.6328 21.3267 10.8951 20.8659C9.41879 19.9433 8.51284 18.2097 8.34554 15.9859C8.25553 14.7913 8.38174 13.5302 8.72123 12.2378C9.08224 10.8662 9.66632 9.52874 10.4578 8.26178C11.2493 6.99481 12.1954 5.8834 13.2706 4.95787C14.2832 4.08616 15.3613 3.4199 16.4747 2.97671C18.5478 2.15293 20.5026 2.20674 21.9789 3.12933C23.4552 4.05192 24.3612 5.78556 24.5285 8.00936C24.6185 9.20393 24.4923 10.465 24.1528 11.7574L24.1518 11.7594Z" fill="#111111"/>
<path d="M52.2707 9.08946C55.1549 9.08946 57.4706 11.326 57.4706 14.172C57.4706 17.018 55.1549 19.1949 52.2707 19.1949C49.3865 19.1949 47.0903 16.9975 47.0903 14.172C47.0903 11.3465 49.4061 9.08946 52.2707 9.08946ZM52.2707 16.5406C53.611 16.5406 54.6158 15.4722 54.6158 14.1515C54.6158 12.8307 53.611 11.7437 52.2707 11.7437C50.9304 11.7437 49.9451 12.8317 49.9451 14.1515C49.9451 15.4713 50.9499 16.5406 52.2707 16.5406ZM71.0805 12.0324C71.0805 16.114 68.1494 18.92 63.9307 18.92H58.6593C58.404 18.92 58.2279 18.7233 58.2279 18.4689V5.61631C58.2279 5.38052 58.404 5.18485 58.6593 5.18485H63.9307C68.1494 5.18485 71.0805 7.93109 71.0805 12.0324ZM67.9997 12.0333C67.9997 9.6393 66.3903 7.89294 64.0559 7.89294H61.1718V16.2129H64.0559C66.3913 16.2129 67.9997 14.3882 67.9997 12.0333ZM76.4341 9.09044C77.7099 9.09044 78.7303 9.64028 79.1813 10.3858V9.79681C79.1813 9.56103 79.3975 9.36536 79.5932 9.36536H81.5753C81.8111 9.36536 81.9872 9.56201 81.9872 9.79681V18.5091C81.9872 18.7448 81.8111 18.9209 81.5753 18.9209H79.5932C79.377 18.9209 79.1813 18.7448 79.1813 18.5091V17.9005C78.7303 18.646 77.6903 19.1959 76.4145 19.1959C73.9422 19.1959 71.646 17.2137 71.646 14.1329C71.646 11.052 73.9618 9.09044 76.4341 9.09044ZM76.9643 16.5612C78.2783 16.5612 79.2625 15.5525 79.2625 14.1534C79.2625 12.7544 78.2773 11.7457 76.9643 11.7457C75.6514 11.7457 74.6662 12.7544 74.6662 14.1534C74.6662 15.5525 75.6514 16.5612 76.9643 16.5612ZM87.5012 9.09044C88.7966 9.09044 89.8366 9.64028 90.2876 10.3466V5.59576C90.2876 5.35998 90.4842 5.18387 90.719 5.18387H92.7012C92.937 5.18387 93.1131 5.35998 93.1131 5.59576V18.5081C93.1131 18.7439 92.937 18.92 92.7012 18.92H90.719C90.5038 18.92 90.3071 18.7439 90.3071 18.5081V17.8995C89.7769 18.645 88.8161 19.1949 87.5404 19.1949C85.0681 19.1949 82.7719 17.2127 82.7719 14.1319C82.7719 11.0511 85.0485 9.08848 87.5012 9.08848M88.0902 16.5846C89.3973 16.5846 90.3786 15.5662 90.3786 14.1515C90.3786 12.7368 89.3983 11.7183 88.0902 11.7183C86.7821 11.7183 85.8018 12.7368 85.8018 14.1515C85.8018 15.5662 86.7821 16.5846 88.0902 16.5846ZM98.6261 9.08848C99.9214 9.08848 100.961 9.63832 101.412 10.3447V5.59576C101.412 5.35998 101.609 5.18387 101.844 5.18387H103.826C104.062 5.18387 104.238 5.35998 104.238 5.59576V18.5081C104.238 18.7439 104.061 18.92 103.826 18.92H101.844C101.628 18.92 101.432 18.7439 101.432 18.5081V17.8995C100.902 18.645 99.941 19.1949 98.6652 19.1949C96.1929 19.1949 93.8967 17.2127 93.8967 14.1319C93.8967 11.0511 96.1734 9.08848 98.6261 9.08848ZM99.2151 16.5846C100.522 16.5846 101.503 15.5662 101.503 14.1515C101.503 12.7368 100.523 11.7183 99.2151 11.7183C97.907 11.7183 96.9267 12.7368 96.9267 14.1515C96.9267 15.5662 97.907 16.5846 99.2151 16.5846ZM114.301 9.3634H112.324C112.01 9.3634 111.853 9.57962 111.795 9.81442L109.969 16.6394L108.014 9.81442C107.902 9.45047 107.724 9.3634 107.469 9.3634H105.385C104.894 9.3634 104.803 9.69702 104.902 10.0306L107.548 18.5071C107.626 18.7429 107.783 18.919 108.078 18.919H109.275L109.021 19.7604C108.771 20.4873 108.304 20.683 107.694 20.683C107.172 20.683 106.83 20.4765 106.46 20.2378C106.318 20.1458 106.207 20.1028 106.069 20.1028C105.891 20.1028 105.769 20.183 105.604 20.4276L105.017 21.3071C104.902 21.4891 104.841 21.5899 104.841 21.7846C104.841 22.0967 105.153 22.2923 105.526 22.5056C106.17 22.8735 106.99 23.0574 107.891 23.0574C109.873 23.0574 111.148 21.9783 111.717 20.1732L114.675 10.0306C114.812 9.63832 114.694 9.3634 114.301 9.3634ZM43.8118 17.0454C42.7728 18.3574 40.9678 19.1831 38.925 19.1831C35.0898 19.1831 32.0912 16.298 32.0912 12.1899C32.0912 8.08176 35.3276 4.97744 39.4161 4.97744C42.4343 4.97744 44.8479 6.27572 45.9182 8.88597C45.9515 8.97108 45.9681 9.03957 45.9681 9.10316C45.9681 9.22741 45.8869 9.32035 45.6267 9.41134L43.716 10.1471C43.5692 10.197 43.444 10.194 43.354 10.152C43.2561 10.107 43.1965 10.0169 43.126 9.89073C42.4461 8.58757 41.2212 7.70118 39.3437 7.70118C36.9076 7.70118 35.1632 9.60408 35.1632 12.0705C35.1632 14.5369 36.6503 16.4271 39.4122 16.4271C40.866 16.4271 42.0264 15.7393 42.5664 14.9889H40.8416C40.5882 14.9889 40.3935 14.7942 40.3935 14.5409V13.0684C40.3935 12.815 40.5882 12.6203 40.8416 12.6203H45.8957C46.1491 12.6203 46.3438 12.7955 46.3438 13.0489V18.467C46.3438 18.7204 46.1491 18.9151 45.8957 18.9151H44.2599C44.0065 18.9151 43.8118 18.7204 43.8118 18.467V17.0454Z" fill="#111111"/>
<path d="M136.386 5.77657C135.83 5.48273 135.374 5.02675 135.08 4.47115C135.047 4.40868 134.998 4.35742 134.94 4.32256C134.882 4.28708 134.815 4.2674 134.744 4.2674C134.603 4.2674 134.475 4.34621 134.409 4.47115C134.115 5.02675 133.658 5.48273 133.103 5.77657C132.978 5.84244 132.9 5.97135 132.9 6.11207C132.9 6.2528 132.978 6.38226 133.103 6.44813C133.658 6.74197 134.115 7.19795 134.409 7.75355C134.442 7.81602 134.49 7.86673 134.548 7.90214C134.606 7.93762 134.674 7.95731 134.744 7.95731C134.886 7.95731 135.014 7.87849 135.08 7.75355C135.374 7.19795 135.83 6.74197 136.386 6.44813C136.511 6.38226 136.589 6.25336 136.589 6.11263C136.589 5.9719 136.511 5.84244 136.386 5.77657ZM152.76 11.6372C152.355 10.8857 151.785 10.2861 151.048 9.83919C150.312 9.39392 149.453 9.17097 148.472 9.17097C147.49 9.17097 146.631 9.39392 145.895 9.83919C145.158 10.2861 144.588 10.8857 144.183 11.6372C143.779 12.3892 143.576 13.2246 143.576 14.1428C143.576 15.0609 143.779 15.8951 144.183 16.6478C144.588 17.3999 145.158 17.9994 145.895 18.4453C146.631 18.8916 147.49 19.1146 148.472 19.1146C149.453 19.1146 150.312 18.8916 151.048 18.4453C151.785 17.9994 152.355 17.3999 152.76 16.6478C153.164 15.8952 153.367 15.0609 153.367 14.1428C153.367 13.2246 153.164 12.3892 152.76 11.6372ZM150.635 15.5884C150.474 16.032 150.215 16.3872 149.861 16.6541C149.507 16.9198 149.043 17.0532 148.472 17.0532C147.9 17.0532 147.436 16.9197 147.082 16.6541C146.728 16.3872 146.469 16.032 146.308 15.5884C146.146 15.1448 146.066 14.663 146.066 14.1428C146.066 13.6233 146.146 13.1409 146.308 12.6961C146.469 12.2525 146.728 11.8973 147.082 11.6316C147.436 11.3648 147.9 11.2325 148.472 11.2325C149.043 11.2325 149.507 11.3648 149.861 11.6316C150.215 11.8973 150.474 12.2525 150.635 12.6961C150.797 13.1409 150.877 13.6233 150.877 14.1428C150.877 14.663 150.797 15.1448 150.635 15.5884ZM143.071 9.21326C142.896 9.18453 142.676 9.17215 142.42 9.17215C141.816 9.17215 141.276 9.36241 140.797 9.74973C140.384 10.0802 140.057 10.5345 139.816 11.1058V9.36463H137.504V18.9197H139.797V14.9793C139.797 14.306 139.908 13.7059 140.127 13.1824C140.346 12.6583 140.657 12.2423 141.06 11.9406C141.461 11.636 141.934 11.4835 142.477 11.4835C142.731 11.4835 142.934 11.4992 143.092 11.5375C143.251 11.5724 143.388 11.6135 143.496 11.658V9.30836C143.388 9.27344 143.245 9.24539 143.071 9.21326ZM133.526 9.3647L129.268 12.2176L126.335 4.85061H124.514L119.129 18.3986C118.733 19.3955 119.467 20.4775 120.539 20.4775C120.69 20.4775 120.839 20.4549 120.981 20.4116C121.124 20.3682 121.26 20.304 121.385 20.2202L128.066 15.7388L129.22 18.9199H131.937L130.121 14.3596L133.526 12.0758V18.9199H135.895V9.36476L133.526 9.3647ZM122.311 16.8797L125.4 8.39756L127.272 13.5551L122.311 16.8797ZM155.777 10.4609C155.777 10.3826 155.751 10.3206 155.701 10.2747C155.649 10.2304 155.579 10.2068 155.492 10.2068H155.183V10.718H155.492C155.578 10.7165 155.647 10.6914 155.699 10.6456C155.751 10.5983 155.777 10.5377 155.777 10.4609ZM155.12 11.7464H154.801C154.784 11.7464 154.77 11.739 154.756 11.7272C154.743 11.7139 154.737 11.6992 154.737 11.6829V9.88915C154.737 9.87436 154.745 9.85962 154.758 9.8478C154.771 9.83449 154.786 9.82861 154.801 9.82861H155.507C155.729 9.82861 155.906 9.88773 156.04 10.0074C156.175 10.1256 156.241 10.2793 156.241 10.4654C156.241 10.5792 156.21 10.6856 156.145 10.7846C156.082 10.8821 155.993 10.9589 155.882 11.0121L156.289 11.6445C156.306 11.6681 156.308 11.6903 156.297 11.711C156.287 11.7302 156.266 11.7405 156.238 11.7405H155.921C155.894 11.7405 155.87 11.7346 155.853 11.7242C155.834 11.7124 155.816 11.6947 155.797 11.6681L155.438 11.0963H155.183V11.6828C155.183 11.6991 155.177 11.7138 155.164 11.7271C155.152 11.739 155.138 11.7464 155.12 11.7464ZM155.461 12.1113C155.831 12.1113 156.141 11.9843 156.391 11.7286C156.642 11.473 156.767 11.1583 156.767 10.7845C156.767 10.4092 156.642 10.093 156.391 9.8374C156.141 9.58028 155.831 9.45175 155.461 9.45175C155.09 9.45175 154.779 9.58028 154.526 9.8374C154.275 10.093 154.148 10.4092 154.148 10.7845C154.148 11.1597 154.275 11.4745 154.526 11.7286C154.779 11.9843 155.09 12.1113 155.461 12.1113ZM154.306 11.9326C154.152 11.7834 154.034 11.609 153.953 11.411C153.87 11.213 153.828 11.0047 153.828 10.7845C153.828 10.5644 153.87 10.3545 153.953 10.1566C154.034 9.96004 154.152 9.7857 154.306 9.63501C154.456 9.4858 154.632 9.37052 154.832 9.29071C155.031 9.21091 155.241 9.17104 155.461 9.17104C155.681 9.17104 155.891 9.21091 156.089 9.2922C156.287 9.372 156.463 9.48722 156.614 9.63501C156.767 9.78719 156.884 9.96153 156.967 10.1595C157.048 10.3575 157.088 10.5659 157.088 10.7845C157.088 11.0032 157.048 11.2115 156.967 11.4095C156.884 11.6075 156.767 11.7819 156.614 11.9326C156.463 12.0818 156.287 12.1956 156.089 12.2769C155.891 12.3567 155.681 12.3965 155.461 12.3965C155.241 12.3965 155.031 12.3567 154.832 12.2769C154.632 12.1971 154.456 12.0818 154.306 11.9326Z" fill="url(#paint0_radial_5762_876)"/>
<path d="M127.272 13.555L125.4 8.39748L126.335 4.85028L129.268 12.2175L127.272 13.555Z" fill="url(#paint1_linear_5762_876)"/>
<defs>
<radialGradient id="paint0_radial_5762_876" cx="0" cy="0" r="1" gradientUnits="userSpaceOnUse" gradientTransform="translate(136.898 6.02991) scale(26.3896 26.3896)">
<stop offset="0.0132" stop-color="#C184FF"/>
<stop offset="0.3557" stop-color="#9F66F7"/>
<stop offset="1" stop-color="#5827E6"/>
</radialGradient>
<linearGradient id="paint1_linear_5762_876" x1="125.913" y1="6.74269" x2="128.838" y2="14.3648" gradientUnits="userSpaceOnUse">
<stop offset="0.1209" stop-color="#C184FF" stop-opacity="0"/>
<stop offset="0.2696" stop-color="#B176FB" stop-opacity="0.1453"/>
<stop offset="0.5986" stop-color="#8A54F2" stop-opacity="0.5158"/>
<stop offset="1" stop-color="#5827E6"/>
</linearGradient>
</defs>
</svg>
