<svg width="24" height="25" viewBox="0 0 24 25" fill="none" xmlns="http://www.w3.org/2000/svg">
<path d="M17.5 16.25H8.5C8.34262 16.25 8.18922 16.2005 8.06154 16.1084C7.93386 16.0164 7.83836 15.8866 7.78857 15.7373L4.95947 7.24997H2.5C2.30109 7.24997 2.11032 7.17095 1.96967 7.0303C1.82902 6.88965 1.75 6.69888 1.75 6.49997C1.75 6.30106 1.82902 6.11029 1.96967 5.96964C2.11032 5.82899 2.30109 5.74997 2.5 5.74997H5.5C5.65738 5.74997 5.81078 5.79948 5.93846 5.8915C6.06615 5.98351 6.16164 6.11337 6.21143 6.26267L9.04053 14.75H16.9595L18.7886 9.26267C18.853 9.07584 18.9885 8.92198 19.1657 8.83452C19.3429 8.74706 19.5475 8.73308 19.7349 8.79561C19.9224 8.85814 20.0776 8.99212 20.1668 9.16845C20.2561 9.34478 20.2721 9.54919 20.2114 9.73727L18.2114 15.7373C18.1616 15.8866 18.0661 16.0164 17.9385 16.1084C17.8108 16.2005 17.6574 16.25 17.5 16.25ZM9 21.25C9.24723 21.25 9.4889 21.1767 9.69446 21.0393C9.90003 20.902 10.0602 20.7067 10.1549 20.4783C10.2495 20.2499 10.2742 19.9986 10.226 19.7561C10.1778 19.5136 10.0587 19.2909 9.88388 19.1161C9.70907 18.9413 9.48634 18.8222 9.24386 18.774C9.00139 18.7258 8.75005 18.7505 8.52165 18.8451C8.29324 18.9397 8.09802 19.0999 7.96066 19.3055C7.82331 19.5111 7.75 19.7527 7.75 20C7.75 20.3315 7.8817 20.6494 8.11612 20.8839C8.35054 21.1183 8.66848 21.25 9 21.25ZM17 21.25C17.2472 21.25 17.4889 21.1767 17.6945 21.0393C17.9 20.902 18.0602 20.7067 18.1549 20.4783C18.2495 20.2499 18.2742 19.9986 18.226 19.7561C18.1778 19.5136 18.0587 19.2909 17.8839 19.1161C17.7091 18.9413 17.4863 18.8222 17.2439 18.774C17.0014 18.7258 16.7501 18.7505 16.5216 18.8451C16.2932 18.9397 16.098 19.0999 15.9607 19.3055C15.8233 19.5111 15.75 19.7527 15.75 20C15.75 20.3315 15.8817 20.6494 16.1161 20.8839C16.3505 21.1183 16.6685 21.25 17 21.25ZM15.5 6.74997H13.75V4.99997C13.75 4.80106 13.671 4.61029 13.5303 4.46964C13.3897 4.32899 13.1989 4.24997 13 4.24997C12.8011 4.24997 12.6103 4.32899 12.4697 4.46964C12.329 4.61029 12.25 4.80106 12.25 4.99997V6.74997H10.5C10.3011 6.74997 10.1103 6.82899 9.96967 6.96964C9.82902 7.11029 9.75 7.30106 9.75 7.49997C9.75 7.69888 9.82902 7.88965 9.96967 8.0303C10.1103 8.17095 10.3011 8.24997 10.5 8.24997H12.25V9.99997C12.25 10.1989 12.329 10.3896 12.4697 10.5303C12.6103 10.671 12.8011 10.75 13 10.75C13.1989 10.75 13.3897 10.671 13.5303 10.5303C13.671 10.3896 13.75 10.1989 13.75 9.99997V8.24997H15.5C15.6989 8.24997 15.8897 8.17095 16.0303 8.0303C16.171 7.88965 16.25 7.69888 16.25 7.49997C16.25 7.30106 16.171 7.11029 16.0303 6.96964C15.8897 6.82899 15.6989 6.74997 15.5 6.74997Z" fill="#444444"/>
</svg>
