<svg width="48" height="48" viewBox="0 0 48 48" fill="none" xmlns="http://www.w3.org/2000/svg">
<path d="M17.9999 36.4999C17.8029 36.5001 17.6078 36.4614 17.4258 36.386C17.2437 36.3106 17.0784 36.1999 16.9393 36.0604L6.93934 26.0604C6.65976 25.7788 6.50319 25.3979 6.50391 25.001C6.50463 24.6042 6.66259 24.2238 6.9432 23.9432C7.2238 23.6626 7.60418 23.5046 8.00101 23.5039C8.39785 23.5032 8.7788 23.6598 9.06042 23.9393L17.9999 32.8788L38.9393 11.9393C39.221 11.6598 39.6019 11.5032 39.9987 11.5039C40.3956 11.5046 40.776 11.6626 41.0566 11.9432C41.3372 12.2238 41.4951 12.6042 41.4959 13.001C41.4966 13.3978 41.34 13.7788 41.0604 14.0604L19.0604 36.0604C18.9213 36.1999 18.756 36.3106 18.574 36.386C18.392 36.4614 18.1969 36.5001 17.9999 36.4999Z" fill="#00A63F"/>
</svg>
