<svg width="64" height="64" viewBox="0 0 64 64" fill="none" xmlns="http://www.w3.org/2000/svg">
<rect width="64" height="64" rx="8" fill="#F5F7F8"/>
<path d="M41.75 32C41.747 29.4152 40.7189 26.9371 38.8913 25.1093C37.0636 23.2815 34.5856 22.2532 32.0008 22.2501L32.0005 22.25H32C29.4141 22.25 26.9342 23.2772 25.1057 25.1057C23.2772 26.9342 22.25 29.4141 22.25 32C22.25 34.5859 23.2772 37.0658 25.1057 38.8943C26.9342 40.7228 29.4141 41.75 32 41.75H32.0005L32.0008 41.7499C34.5856 41.7468 37.0636 40.7185 38.8913 38.8907C40.7189 37.0629 41.747 34.5848 41.75 32ZM40.212 31.25H36.723C36.6173 28.7994 35.9568 26.4048 34.7913 24.2465C36.2665 24.7789 37.5596 25.7202 38.5195 26.9604C39.4794 28.2006 40.0665 29.6885 40.212 31.25V31.25ZM30.811 39.5547C29.5844 37.4878 28.8848 35.1509 28.7738 32.75H35.2264C35.1154 35.1513 34.4155 37.4885 33.1884 39.5557C33.0631 39.7583 32.8881 39.9255 32.68 40.0414C32.4719 40.1573 32.2377 40.2181 31.9994 40.218C31.7612 40.2179 31.527 40.1569 31.319 40.0408C31.111 39.9247 30.9361 39.7574 30.811 39.5547V39.5547ZM28.7738 31.25C28.8848 28.8489 29.5844 26.512 30.811 24.4448C30.9297 24.234 31.1024 24.0585 31.3113 23.9364C31.5202 23.8143 31.7578 23.75 31.9997 23.75C32.2417 23.75 32.4793 23.8143 32.6882 23.9364C32.8971 24.0585 33.0697 24.234 33.1884 24.4448C34.4154 26.5118 35.1153 28.8488 35.2264 31.25H28.7738ZM29.208 24.2468C28.0426 26.405 27.3822 28.7995 27.2765 31.25H23.788C23.9335 29.6886 24.5205 28.2009 25.4802 26.9607C26.44 25.7206 27.733 24.7792 29.208 24.2468V24.2468ZM23.788 32.75H27.2765C27.3821 35.2004 28.0425 37.5949 29.2077 39.7531C27.7328 39.2206 26.4399 38.2793 25.4802 37.0392C24.5204 35.799 23.9335 34.3113 23.788 32.75V32.75ZM34.7917 39.7534C35.957 37.5951 36.6174 35.2005 36.723 32.75H40.212C40.0665 34.3115 39.4795 35.7992 38.5196 37.0394C37.5598 38.2796 36.2668 39.2209 34.7917 39.7534H34.7917Z" fill="#111111"/>
</svg>
