<svg width="24" height="24" viewBox="0 0 24 24" fill="none" xmlns="http://www.w3.org/2000/svg">
<path d="M5 17.7496C4.88901 17.7496 4.77941 17.725 4.67911 17.6775C4.5788 17.63 4.49028 17.5608 4.41994 17.4749C4.3496 17.3891 4.29918 17.2887 4.27233 17.181C4.24548 17.0733 4.24285 16.961 4.26465 16.8522L5.22465 12.0534C5.25335 11.908 5.32475 11.7746 5.42973 11.6701L14.3496 2.75064C14.6752 2.43952 15.1081 2.26581 15.5584 2.26563C16.0087 2.26544 16.4418 2.43879 16.7676 2.74964L19.25 5.23255C19.5699 5.5534 19.7495 5.98798 19.7495 6.44105C19.7495 6.89412 19.5699 7.32871 19.25 7.64955L10.3296 16.57C10.2248 16.6746 10.0915 16.7459 9.94629 16.775L5.14697 17.735C5.09858 17.7447 5.04935 17.7496 5 17.7496ZM6.65088 12.57L5.95605 16.0436L9.42969 15.3493L18.1894 6.58953C18.2286 6.55016 18.2506 6.49688 18.2506 6.44134C18.2506 6.3858 18.2286 6.33252 18.1894 6.29315L15.707 3.81064C15.6649 3.77691 15.6126 3.75848 15.5587 3.75839C15.5047 3.7583 15.4523 3.77655 15.4101 3.81015L6.65088 12.57Z" fill="#111111"/>
<path d="M20 21.7496H4C3.80109 21.7496 3.61032 21.6706 3.46967 21.53C3.32902 21.3893 3.25 21.1986 3.25 20.9996C3.25 20.8007 3.32902 20.61 3.46967 20.4693C3.61032 20.3287 3.80109 20.2496 4 20.2496H20C20.1989 20.2496 20.3897 20.3287 20.5303 20.4693C20.671 20.61 20.75 20.8007 20.75 20.9996C20.75 21.1986 20.671 21.3893 20.5303 21.53C20.3897 21.6706 20.1989 21.7496 20 21.7496Z" fill="#111111"/>
</svg>
