<svg width="26" height="27" viewBox="0 0 26 27" fill="none" xmlns="http://www.w3.org/2000/svg">
<rect x="0.5" y="1.25" width="25" height="25" rx="3.5" stroke="#D4DBE0"/>
<path fill-rule="evenodd" clip-rule="evenodd" d="M9.5651 9.71518C9.5651 12.669 11.2015 13.11 12.1745 13.11C13.1478 13.11 14.7799 12.669 14.7799 9.71518C14.7799 9.36003 14.7535 9.01724 14.6311 8.69014C14.5088 8.36304 14.3176 8.06599 14.0707 7.81906C13.8237 7.57213 13.5267 7.38106 13.1995 7.25874C12.8724 7.13643 12.5078 7.08398 12.1745 7.08398C11.8411 7.08399 11.4766 7.13644 11.1495 7.25876C10.8224 7.38109 10.5253 7.57216 10.2784 7.8191C10.0315 8.06604 9.84039 8.36308 9.71807 8.69017C9.59575 9.01727 9.5651 9.36003 9.5651 9.71518ZM11.5331 8.1836C11.7387 8.11136 11.9661 8.07357 12.1745 8.07357C12.3828 8.07357 12.6103 8.11124 12.816 8.18346C13.0216 8.25568 13.2084 8.37317 13.3625 8.52726C13.5166 8.68135 13.6341 8.8681 13.7064 9.07371C13.7787 9.27932 13.7799 9.49724 13.7799 9.71518C13.7799 12.11 12.6136 12.11 12.1745 12.11C11.7354 12.11 10.5693 12.11 10.5693 9.71518C10.5693 9.49727 10.5707 9.27939 10.6429 9.07381C10.7152 8.86824 10.8327 8.68151 10.9867 8.52743C11.1408 8.37335 11.3275 8.25585 11.5331 8.1836Z" fill="#111111"/>
<path fill-rule="evenodd" clip-rule="evenodd" d="M16.333 12.584C15.3205 12.584 14.4997 13.4048 14.4997 14.4173V15.7507H13.9997C13.4474 15.7507 12.9997 16.1984 12.9997 16.7507V19.4173C12.9997 19.9696 13.4474 20.4173 13.9997 20.4173H18.6663C19.2186 20.4173 19.6663 19.9696 19.6663 19.4173V16.7507C19.6663 16.1984 19.2186 15.7507 18.6663 15.7507H18.1663V14.4173C18.1663 13.4048 17.3455 12.584 16.333 12.584ZM17.1663 14.4173V15.7507H15.4997V14.4173C15.4997 13.9571 15.8728 13.584 16.333 13.584C16.7932 13.584 17.1663 13.9571 17.1663 14.4173ZM13.9997 16.7507V19.4173H18.6663V16.7507H13.9997Z" fill="#111111"/>
<path d="M13.333 14.5846C13.333 14.8657 13.0832 15.1081 12.7991 15.0848C12.588 15.0674 12.3764 15.0586 12.1663 15.0586C9.84212 15.0586 7.33333 16.14 7.33333 17.8867L7.33301 18.2259C7.33367 18.2698 7.35147 18.3118 7.3826 18.3428C7.41373 18.3738 7.45574 18.3914 7.49967 18.3919H11.4997C11.7758 18.3919 11.9997 18.6158 11.9997 18.8919C11.9997 19.1681 11.7758 19.3919 11.4997 19.3919H7.49967C7.19037 19.3916 6.89384 19.2685 6.67513 19.0498C6.45642 18.8311 6.33338 18.5346 6.33301 18.2253L6.33333 17.8861C6.33333 15.4902 9.29915 14.0586 12.1663 14.0586C12.3877 14.0586 12.6097 14.0671 12.8309 14.084L12.8378 14.0847C13.1117 14.0872 13.333 14.3101 13.333 14.5846Z" fill="#111111"/>
</svg>
