<svg width="26" height="27" viewBox="0 0 26 27" fill="none" xmlns="http://www.w3.org/2000/svg">
<rect x="0.5" y="1.25" width="25" height="25" rx="3.5" stroke="#D4DBE0"/>
<path d="M17.6631 8.9917L14.3662 7.64307C13.4902 7.28825 12.5105 7.28825 11.6344 7.64307L8.33789 8.99202C7.99748 9.12372 7.70417 9.35408 7.49555 9.65358C7.28694 9.95308 7.17253 10.3081 7.16699 10.673V13.0793C7.20625 14.7203 7.7898 16.3017 8.82589 17.5748C9.86198 18.848 11.2918 19.7406 12.8906 20.1125C12.9628 20.129 13.0378 20.129 13.11 20.1125C14.7088 19.7406 16.1386 18.8479 17.1747 17.5747C18.2108 16.3016 18.7943 14.7202 18.8337 13.0793V10.673C18.828 10.3081 18.7136 9.95317 18.5051 9.65365C18.2965 9.35413 18.0034 9.12365 17.6631 8.9917ZM17.8337 13.0793C17.7984 14.4749 17.3066 15.8204 16.4337 16.9099C15.5607 17.9993 14.3547 18.7726 13.0003 19.1112C11.6459 18.7726 10.4399 17.9994 9.5669 16.9099C8.69392 15.8205 8.20218 14.4749 8.16699 13.0793V10.673C8.17322 10.5067 8.22884 10.346 8.32676 10.2115C8.42468 10.0769 8.56047 9.97456 8.7168 9.91748L12.0127 8.56885C12.646 8.31266 13.354 8.31266 13.9873 8.56885L17.2842 9.91716C17.4405 9.97435 17.5762 10.0768 17.674 10.2114C17.7719 10.346 17.8275 10.5067 17.8337 10.673V13.0793Z" fill="#111111"/>
<path d="M14.6468 12.1047L12.5003 14.2511L11.3538 13.1047C11.26 13.0112 11.133 12.9588 11.0005 12.9589C10.8681 12.959 10.7411 13.0117 10.6475 13.1054C10.5539 13.199 10.5012 13.326 10.5011 13.4584C10.5009 13.5908 10.5534 13.7179 10.6468 13.8117L12.1468 15.3117C12.2396 15.4046 12.369 15.4582 12.5003 15.4582C12.6316 15.4582 12.761 15.4046 12.8538 15.3117L15.3538 12.8117C15.4473 12.7179 15.4997 12.5908 15.4996 12.4584C15.4995 12.326 15.4468 12.199 15.3532 12.1054C15.2595 12.0117 15.1325 11.959 15.0001 11.9589C14.8677 11.9588 14.7406 12.0112 14.6468 12.1047Z" fill="#111111"/>
</svg>
