<svg width="26" height="27" viewBox="0 0 26 27" fill="none" xmlns="http://www.w3.org/2000/svg">
<rect x="0.5" y="1.25" width="25" height="25" rx="3.5" stroke="#D4DBE0"/>
<path d="M17.8844 15.4837L17.4111 15.0098C17.2554 14.8531 17.1677 14.6414 17.167 14.4206V12.5283C17.1643 11.779 16.9245 11.0498 16.482 10.4452C16.0394 9.84054 15.4169 9.39151 14.7034 9.16244V8.63965C14.7031 8.24697 14.547 7.87046 14.2694 7.59273C13.9918 7.315 13.6153 7.15873 13.2227 7.1582H12.778C12.3853 7.1587 12.0087 7.31495 11.731 7.59266C11.4533 7.87038 11.2971 8.2469 11.2966 8.63965V9.16265C10.5833 9.39182 9.96087 9.84087 9.51846 10.4455C9.07604 11.05 8.83633 11.7791 8.83367 12.5283V14.4206C8.83312 14.6415 8.74538 14.8532 8.58953 15.0098L8.11589 15.4837C7.95546 15.6432 7.82826 15.8329 7.74165 16.0419C7.65504 16.2509 7.61075 16.475 7.61133 16.7012V17.362C7.61171 17.6713 7.73474 17.9678 7.95346 18.1865C8.17217 18.4052 8.4687 18.5283 8.778 18.5286H10.9923C11.038 19.0297 11.2694 19.4955 11.6409 19.8347C12.0125 20.1739 12.4974 20.362 13.0005 20.362C13.5036 20.362 13.9885 20.1739 14.3601 19.8347C14.7317 19.4955 14.963 19.0297 15.0087 18.5286H17.2223C17.5316 18.5283 17.8282 18.4052 18.0469 18.1865C18.2656 17.9678 18.3886 17.6713 18.389 17.362V16.7012C18.3898 16.4749 18.3457 16.2508 18.259 16.0418C18.1724 15.8327 18.0451 15.6431 17.8844 15.4837V15.4837ZM12.2594 8.63965C12.2595 8.50215 12.3142 8.3703 12.4114 8.27307C12.5087 8.17584 12.6405 8.12118 12.778 8.12109H13.2227C13.3602 8.12123 13.492 8.17591 13.5892 8.27313C13.6864 8.37035 13.7411 8.50216 13.7412 8.63965V8.98612C13.6972 8.9845 13.6558 8.97298 13.6113 8.97298H12.3893C12.3449 8.97298 12.3035 8.9845 12.2594 8.98612V8.63965ZM13.0003 19.362C12.7617 19.3616 12.5307 19.2782 12.3468 19.1262C12.1629 18.9742 12.0376 18.7629 11.9923 18.5286H14.0087C13.9634 18.763 13.838 18.9742 13.654 19.1262C13.4701 19.2783 13.239 19.3616 13.0003 19.362ZM17.389 17.362C17.3889 17.4062 17.3713 17.4485 17.3401 17.4797C17.3089 17.511 17.2665 17.5286 17.2223 17.5286H8.778C8.73382 17.5286 8.69148 17.511 8.66024 17.4797C8.629 17.4485 8.61142 17.4062 8.61133 17.362V16.7012C8.61114 16.6063 8.62974 16.5124 8.66606 16.4248C8.70237 16.3372 8.75569 16.2576 8.82293 16.1908L9.29656 15.7168C9.46735 15.547 9.60277 15.345 9.69496 15.1225C9.78715 14.9 9.8343 14.6614 9.83367 14.4206V12.5283C9.83451 11.8508 10.104 11.2013 10.5832 10.7222C11.0623 10.2432 11.7118 9.97374 12.3893 9.97298H13.6113C14.2888 9.97374 14.9384 10.2432 15.4175 10.7222C15.8966 11.2013 16.1662 11.8508 16.167 12.5283V14.4206C16.1664 14.6614 16.2135 14.9 16.3057 15.1225C16.3979 15.345 16.5333 15.547 16.7041 15.7168L17.1781 16.1914C17.2453 16.2581 17.2986 16.3376 17.3348 16.4251C17.371 16.5126 17.3894 16.6065 17.389 16.7012L17.389 17.362Z" fill="#111111"/>
</svg>
