<svg width="24" height="25" viewBox="0 0 24 25" fill="none" xmlns="http://www.w3.org/2000/svg">
<path d="M4 10.25H9C9.19891 10.25 9.38968 10.171 9.53033 10.0303C9.67098 9.88968 9.75 9.69891 9.75 9.5C9.75 9.30109 9.67098 9.11032 9.53033 8.96967C9.38968 8.82902 9.19891 8.75 9 8.75H5.93C6.58157 7.71252 7.48571 6.85732 8.5578 6.26443C9.6299 5.67155 10.8349 5.36036 12.06 5.36C13.5384 5.35855 14.9802 5.81959 16.1834 6.67855C17.3867 7.5375 18.2911 8.75133 18.77 10.15C18.9595 10.6894 19.0805 11.2504 19.13 11.82C19.1475 12.0065 19.2342 12.1797 19.373 12.3056C19.5329 12.4506 19.7298 12.5 19.94 12.5C20.1372 12.4821 20.324 12.3837 20.4504 12.2313C20.5768 12.0789 20.6389 11.8771 20.62 11.68C20.5567 10.9921 20.4124 10.314 20.19 9.66C19.6078 7.96685 18.5114 6.49779 17.0539 5.45796C15.5963 4.41814 13.8504 3.85948 12.06 3.86C10.6113 3.86382 9.18594 4.22548 7.91066 4.91284C6.63538 5.6002 5.54966 6.59197 4.75 7.8V4.5C4.75 4.30109 4.67098 4.11032 4.53033 3.96967C4.38968 3.82902 4.19891 3.75 4 3.75C3.80109 3.75 3.61032 3.82902 3.46967 3.96967C3.32902 4.11032 3.25 4.30109 3.25 4.5V9.5C3.25144 9.69847 3.33092 9.8884 3.47126 10.0287C3.6116 10.1691 3.80153 10.2486 4 10.25ZM19.91 14.75H14.91C14.7111 14.75 14.5203 14.829 14.3797 14.9697C14.239 15.1103 14.16 15.3011 14.16 15.5C14.16 15.6989 14.239 15.8897 14.3797 16.0303C14.5203 16.171 14.7111 16.25 14.91 16.25H17.98C17.1068 17.632 15.7925 18.6786 14.25 19.22C13.3654 19.5389 12.4262 19.6786 11.4871 19.631C10.548 19.5833 9.62772 19.3494 8.7799 18.9427C7.93208 18.536 7.17364 17.9647 6.54874 17.2621C5.92384 16.5594 5.44496 15.7395 5.14 14.85C4.9515 14.3103 4.83058 13.7494 4.78 13.18C4.76009 12.9816 4.6629 12.7991 4.50945 12.6718C4.35599 12.5446 4.15861 12.4829 3.96 12.5C3.76395 12.5187 3.57856 12.6177 3.45395 12.7702C3.32935 12.9227 3.26928 13.1242 3.29 13.32C3.34839 14.0054 3.49286 14.6807 3.72 15.33C4.30164 17.0243 5.39762 18.4948 6.85505 19.5363C8.31248 20.5778 10.0587 21.1385 11.85 21.14C12.838 21.1389 13.8187 20.9699 14.75 20.64C16.5558 19.9996 18.1038 18.7885 19.16 17.19V20.5C19.16 20.6989 19.239 20.8897 19.3797 21.0303C19.5203 21.171 19.7111 21.25 19.91 21.25C20.1089 21.25 20.2997 21.171 20.4403 21.0303C20.581 20.8897 20.66 20.6989 20.66 20.5V15.5C20.6603 15.3029 20.58 15.1087 20.4406 14.9694C20.3013 14.83 20.1071 14.7497 19.91 14.75Z" fill="#444444"/>
</svg>
