<svg width="64" height="64" viewBox="0 0 64 64" fill="none" xmlns="http://www.w3.org/2000/svg">
<rect width="64" height="64" rx="8" fill="#F5F7F8"/>
<path d="M39.9424 24.0918H24.0576C23.3133 24.0925 22.5997 24.3885 22.0733 24.9148C21.547 25.441 21.2509 26.1546 21.25 26.8989V36.1177C21.2508 36.862 21.5469 37.5757 22.0733 38.102C22.5996 38.6284 23.3133 38.9244 24.0576 38.9253H39.9424C40.6867 38.9244 41.4003 38.6283 41.9266 38.1019C42.453 37.5756 42.7491 36.862 42.75 36.1177V26.8989C42.749 26.1546 42.4529 25.4411 41.9266 24.9149C41.4002 24.3886 40.6867 24.0926 39.9424 24.0918ZM40.8887 33.3228C39.8405 33.2912 38.8225 33.676 38.0573 34.393C37.2922 35.1101 36.8421 36.101 36.8057 37.149V37.4253H27.1943V37.1489C27.158 36.1009 26.7079 35.11 25.9428 34.3929C25.1776 33.6758 24.1595 33.2911 23.1113 33.3228H22.75V29.6943H23.1113C24.1597 29.7259 25.1778 29.341 25.943 28.6238C26.7082 27.9065 27.1582 26.9153 27.1943 25.8671V25.5918H36.8057V25.8672C36.8419 26.9153 37.2918 27.9065 38.057 28.6237C38.8222 29.341 39.8403 29.7259 40.8887 29.6943H41.25V33.3227L40.8887 33.3228ZM41.25 26.8989V28.1943H40.8887C40.2382 28.2256 39.6017 27.9986 39.1179 27.5627C38.6341 27.1268 38.3421 26.5173 38.3057 25.8671V25.5918H39.9424C40.289 25.5922 40.6213 25.73 40.8664 25.975C41.1115 26.2201 41.2495 26.5523 41.25 26.8989ZM24.0576 25.5918H25.6943V25.8672C25.6579 26.5174 25.366 27.1269 24.8822 27.5628C24.3983 27.9987 23.7618 28.2257 23.1113 28.1943H22.75V26.8989C22.7504 26.5523 22.8884 26.22 23.1335 25.975C23.3787 25.7299 23.711 25.5921 24.0576 25.5918ZM22.75 36.1177V34.8227H23.1113C23.7617 34.7913 24.3981 35.0182 24.8819 35.4539C25.3657 35.8896 25.6577 36.4989 25.6943 37.1489V37.4253H24.0576C23.7109 37.4249 23.3786 37.287 23.1335 37.0418C22.8883 36.7967 22.7504 36.4644 22.75 36.1177ZM39.9424 37.4253H38.3057V37.1489C38.3423 36.4989 38.6344 35.8897 39.1182 35.454C39.602 35.0183 40.2383 34.7914 40.8887 34.8228H41.25V36.1177C41.2495 36.4643 41.1116 36.7966 40.8665 37.0418C40.6213 37.2869 40.289 37.4248 39.9424 37.4253Z" fill="#111111"/>
<path d="M32 28.2583C31.3572 28.2583 30.7289 28.4489 30.1944 28.806C29.6599 29.1631 29.2434 29.6707 28.9974 30.2646C28.7514 30.8584 28.687 31.5119 28.8124 32.1423C28.9378 32.7728 29.2474 33.3519 29.7019 33.8064C30.1564 34.2609 30.7355 34.5704 31.366 34.6958C31.9964 34.8213 32.6499 34.7569 33.2437 34.5109C33.8376 34.2649 34.3452 33.8484 34.7023 33.3139C35.0594 32.7794 35.25 32.1511 35.25 31.5083C35.249 30.6466 34.9063 29.8206 34.297 29.2113C33.6877 28.602 32.8616 28.2593 32 28.2583ZM32 33.2583C31.6539 33.2583 31.3155 33.1557 31.0278 32.9634C30.74 32.7711 30.5157 32.4978 30.3832 32.178C30.2508 31.8582 30.2161 31.5064 30.2836 31.1669C30.3511 30.8274 30.5178 30.5156 30.7626 30.2709C31.0073 30.0261 31.3191 29.8594 31.6586 29.7919C31.9981 29.7244 32.3499 29.7591 32.6697 29.8915C32.9895 30.024 33.2628 30.2483 33.4551 30.536C33.6474 30.8238 33.75 31.1622 33.75 31.5083C33.7494 31.9723 33.5649 32.417 33.2368 32.7451C32.9087 33.0732 32.464 33.2577 32 33.2583Z" fill="#111111"/>
</svg>
